<svg xmlns="http://www.w3.org/2000/svg" width="434.3" height="241.7" style="overflow:visible;enable-background:new 0 0 434.3 241.7" xml:space="preserve"><path d="M70.2 33.8h1.4l-2-12.9h-4.2l-2.3 12.9h1.4v.8h-4v-.8H62L68 .6h1.5L75 33.8h1.5v.8h-6.2v-.8zm-.7-13.6L67.6 8.6l-2.1 11.6h4zm7.8 13.6h1.4V.8h-1.4V0h4.3v33.8H83v.8h-5.8v-.8zm14.9-.8c-.7 1.2-1.6 1.9-3.1 1.9-3.4 0-3.6-4-3.6-6.1V11.3H84v-.8h4.3v18.7c0 2.3 0 4.2 1.7 4.2.8 0 1.5-.4 2.1-1.4V11.3h-1.4v-.8H95v23.2h1.4v.8h-4.3V33zm18.7.8h1.4v-18c0-2.3 0-4.2-1.8-4.2-.7 0-1.7.4-2.4 1.3.3 1.2.3 2.4.3 3.3v17.5h1.4v.8H104v-.8h1.4v-18c0-2.3 0-4.2-1.7-4.2-.8 0-1.5.4-2.1 1.4v20.7h1.4v.8h-5.8v-.8h1.4V11.3h-1.4v-.8h4.3V12c.7-1.2 1.6-1.9 3.1-1.9s2.4.9 2.9 2c.9-1.1 2.2-2 3.7-2 3.4 0 3.6 4 3.6 6.1v17.5h1.4v.8h-5.8v-.7zm6.7 0h1.4V11.3h-1.4v-.8h4.3v23.2h1.4v.8h-5.8v-.7zm2.9-31.2c1.2 0 2.2 1 2.2 2.2s-1 2.2-2.2 2.2-2.2-1-2.2-2.2 1-2.2 2.2-2.2zm10.6 31.2h1.4v-18c0-2.3 0-4.2-1.7-4.2-.8 0-1.5.4-2.1 1.4v20.7h1.4v.8h-5.8v-.8h1.4V11.3h-1.4v-.8h4.3V12c.7-1.2 1.6-1.9 3.1-1.9 3.4 0 3.6 4 3.6 6.1v17.5h1.4v.8h-5.8v-.7zm6.7 0h1.4V11.3h-1.4v-.8h4.3v23.2h1.4v.8h-5.8v-.7zm2.9-31.2c1.2 0 2.2 1 2.2 2.2s-1 2.2-2.2 2.2-2.2-1-2.2-2.2 1-2.2 2.2-2.2zm12 30.4c-.7 1.2-1.6 1.9-3.1 1.9-3.4 0-3.6-4-3.6-6.1V11.3h-1.4v-.8h4.3v18.7c0 2.3 0 4.2 1.7 4.2.8 0 1.5-.4 2.1-1.4V11.3h-1.4v-.8h4.3v23.2h1.4v.8h-4.3V33zm18.7.8h1.4v-18c0-2.3 0-4.2-1.8-4.2-.7 0-1.7.4-2.4 1.3.3 1.2.3 2.4.3 3.3v17.5h1.4v.8h-5.8v-.8h1.4v-18c0-2.3 0-4.2-1.7-4.2-.8 0-1.5.4-2.1 1.4v20.7h1.4v.8H158v-.8h1.4V11.3H158v-.8h4.3V12c.7-1.2 1.6-1.9 3.1-1.9s2.4.9 2.9 2c.9-1.1 2.2-2 3.7-2 3.4 0 3.6 4 3.6 6.1v17.5h1.4v.8h-5.8v-.7zm15.4 0h1.4V11.3h-1.4v-.8h4.3v23.2h1.4v.8h-5.8v-.7zm2.8-31.2c1.2 0 2.2 1 2.2 2.2s-1 2.2-2.2 2.2-2.2-1-2.2-2.2 1-2.2 2.2-2.2zm11.3 14.7v-1.4c0-2.6 0-4.9-1.5-4.9-1.6 0-1.6 2.2-1.6 3.8 0 5.9 6 8.3 6 14.1 0 1.6 0 6.1-4.8 6.1s-4.8-4.6-4.8-6.1V27h2.9v2.4c0 1.9 0 4.9 1.9 4.9s1.9-3 1.9-4.9c0-5.2-6-7.6-6-14.2 0-1.4 0-4.9 4.4-4.9 4.3 0 4.3 3.4 4.3 5.7v1.4h-2.7zM221.6 33c-.7 1.2-1.6 1.9-3.1 1.9-3.4 0-3.6-4-3.6-6.1V25c0-2.2.2-6.1 3.6-6.1 1.5 0 2.4.8 3.1 1.9v-4.9c0-2.4 0-4.9-2.4-4.9-1.6 0-2.9 1.1-3 2.7.2-.4.6-.6 1.1-.6.8 0 1.3.6 1.3 1.4 0 .9-.6 1.5-1.5 1.5-1 0-1.6-.7-1.6-2.1 0-2.2 1.8-3.8 4.5-3.8 4.7 0 4.7 4.6 4.7 6.1v17.5h1.4v.8h-4.3V33zm-2.1.5c.8 0 1.5-.4 2.1-1.4V21.7c-.6-1-1.3-1.4-2.1-1.4-1.7 0-1.7 1.9-1.7 4.2v4.8c-.1 2.2-.1 4.2 1.7 4.2zm23.4-16.2v-1.4c0-2.6 0-4.9-1.5-4.9-1.6 0-1.6 2.2-1.6 3.8 0 5.9 6 8.3 6 14.1 0 1.6 0 6.1-4.8 6.1s-4.8-4.6-4.8-6.1V27h2.9v2.4c0 1.9 0 4.9 1.9 4.9s1.9-3 1.9-4.9c0-5.2-6-7.6-6-14.2 0-1.4 0-4.9 4.4-4.9 4.3 0 4.3 3.4 4.3 5.7v1.4h-2.7zm4.6 16.5h1.4V11.3h-1.4v-.8h4.3v23.2h1.4v.8h-5.8v-.7zm2.9-31.2c1.2 0 2.2 1 2.2 2.2s-1 2.2-2.2 2.2-2.2-1-2.2-2.2 1-2.2 2.2-2.2zm3.8 31.2h1.4V.8h-1.4V0h4.3v33.8h1.4v.8h-5.8v-.8zm7.3-22.5H260v-.8h6v.8h-1.4l3 15.9 2.9-15.9h-1.4v-.8h4v.8h-1.5l-4.5 23.6H266l-4.5-23.6zm16.5-1.1c4.8 0 4.8 4.6 4.8 6.1v3.4h-6.7v9.6c0 1.9 0 4.9 1.9 4.9s1.9-3 1.9-4.9v-2.4h2.9v1.9c0 1.6 0 6.1-4.8 6.1s-4.8-4.6-4.8-6.1V16.3c0-1.6 0-6.1 4.8-6.1zm1.9 8.7v-3.1c0-1.9 0-4.9-1.9-4.9s-1.9 3-1.9 4.9v3.1h3.8zm4.6 14.9h1.4V11.3h-1.4v-.8h4.3V12c.9-1.1 1.9-1.9 3.2-1.9 1.6 0 2.4 1.2 2.4 2.7 0 1.5-.7 2.1-1.5 2.1-1 0-1.5-.6-1.5-1.6s.7-1.5 1.4-1.5c.3 0 .5.1.7.2-.1-.7-.6-1.1-1.3-1.1-1.1 0-2.3.9-3.3 2.2v20.6h2v.8h-6.3v-.7z"/><path d="M293.6 44.1c0-1.3.9-2.1 1.8-2.1s1.5.8 1.5 1.8-.5 1.6-1.4 1.6h-.3c.4.2.8.3 1.2.3 1.7 0 2.5-2.4 3.3-7l.5-2.9-5.2-24.5h-1.5v-.8h6v.8h-1.4l3.2 16.3 2.7-16.3h-1.3v-.8h3.9v.8H305l-4.7 27.3c-.9 5-1.6 7.8-4 7.8-1.4.1-2.7-.8-2.7-2.3zm35.8-10.3h1.4v-18c0-2.3 0-4.2-1.8-4.2-.7 0-1.7.4-2.4 1.3.3 1.2.3 2.4.3 3.3v17.5h1.4v.8h-5.8v-.8h1.4v-18c0-2.3 0-4.2-1.7-4.2-.8 0-1.5.4-2.1 1.4v20.7h1.4v.8h-5.8v-.8h1.4V11.3h-1.4v-.8h4.3V12c.7-1.2 1.6-1.9 3.1-1.9s2.4.9 2.9 2c.9-1.1 2.2-2 3.7-2 3.4 0 3.6 4 3.6 6.1v17.5h1.4v.8h-5.8v-.7zm12.2-23.6c4.8 0 4.8 4.6 4.8 6.1v3.4h-6.7v9.6c0 1.9 0 4.9 1.9 4.9s1.9-3 1.9-4.9v-2.4h2.9v1.9c0 1.6 0 6.1-4.8 6.1s-4.8-4.6-4.8-6.1V16.3c0-1.6 0-6.1 4.8-6.1zm1.9 8.7v-3.1c0-1.9 0-4.9-1.9-4.9s-1.9 3-1.9 4.9v3.1h3.8zm3.6-7.6v-.8h2.4V2.8h2.9v7.8h3.8v.8h-3.8v17.5c0 3 .5 5.1 1.7 5.1.8 0 1.5-1 1.5-2.7h.9c0 1 0 3.7-2.9 3.7-3.7 0-4-4.6-4-6.6v-17h-2.5zM363.9 33c-.7 1.2-1.6 1.9-3.1 1.9-3.4 0-3.6-4-3.6-6.1V25c0-2.2.2-6.1 3.6-6.1 1.5 0 2.4.8 3.1 1.9v-4.9c0-2.4 0-4.9-2.4-4.9-1.6 0-2.9 1.1-3 2.7.2-.4.6-.6 1.1-.6.8 0 1.3.6 1.3 1.4 0 .9-.6 1.5-1.5 1.5-1 0-1.6-.7-1.6-2.1 0-2.2 1.8-3.8 4.5-3.8 4.7 0 4.7 4.6 4.7 6.1v17.5h1.4v.8h-4.3V33zm-2.1.5c.8 0 1.5-.4 2.1-1.4V21.7c-.6-1-1.3-1.4-2.1-1.4-1.7 0-1.7 1.9-1.7 4.2v4.8c0 2.2 0 4.2 1.7 4.2zm7.4.3h1.4V.8h-1.4V0h4.3v33.8h1.4v.8h-5.8v-.8zM1.5 68.9H0v-.8h6v.8H4.7l3 15.9L10 72l-.6-3.1H7.9v-.8h6v.8h-1.4l3 15.9 2.9-15.9H17v-.8h4v.8h-1.5L15 92.5h-1l-3.5-17.7-3.3 17.7H6.1L1.5 68.9zm20.3 22.5h1.4V68.9h-1.4v-.8h4.3v23.2h1.4v.8h-5.8v-.7zm2.9-31.2c1.2 0 2.2 1 2.2 2.2s-1 2.2-2.2 2.2-2.2-1-2.2-2.2 1-2.2 2.2-2.2zm3.8 8.7v-.8h2.4v-7.8h2.9v7.8h3.8v.8h-3.8v17.5c0 3 .5 5.1 1.7 5.1.8 0 1.5-1 1.5-2.7h.9c0 1 0 3.7-2.9 3.7-3.7 0-4-4.6-4-6.6v-17h-2.5z"/><path d="M44.4 91.4h1.4v-18c0-2.3 0-4.2-1.7-4.2-.8 0-1.5.4-2.1 1.4v20.7h1.4v.8h-5.8v-.8H39v-33h-1.4v-.8H42v12.1c.7-1.2 1.6-1.9 3.1-1.9 3.4 0 3.6 4 3.6 6.1v17.5h1.4v.8h-5.8v-.7zm15.3 0h1.4v-33h-1.4v-.8H64v33.8h1.4v.8h-5.8v-.8zM72 67.8c4.8 0 4.8 4.6 4.8 6.1v12.5c0 1.6 0 6.1-4.8 6.1s-4.8-4.6-4.8-6.1V73.9c0-1.6 0-6.1 4.8-6.1zm0 24c1.9 0 1.9-3 1.9-4.9V73.4c0-1.9 0-4.9-1.9-4.9s-1.9 3-1.9 4.9v13.4c-.1 2-.1 5 1.9 5zm7.2-22.9h-1.5v-.8h6v.8h-1.4l3 15.9L87.7 72l-.6-3.1h-1.5v-.8h6v.8h-1.4l3 15.9 2.9-15.9h-1.4v-.8h4v.8h-1.5l-4.5 23.6h-1.1l-3.5-17.7L85 92.5h-1.1l-4.7-23.6zm36.4 21.7c-.7 1.2-1.6 1.9-3.1 1.9-3.4 0-3.6-4-3.6-6.1V73.9c0-2.2.2-6.1 3.6-6.1 1.5 0 2.4.8 3.1 1.9V58.4h-1.4v-.8h4.3v33.8h1.4v.8h-4.3v-1.6zm-2.1.5c.8 0 1.5-.4 2.1-1.4v-19c-.6-1-1.3-1.4-2.1-1.4-1.7 0-1.7 1.9-1.7 4.2v13.4c0 2.2 0 4.2 1.7 4.2zm12.9-23.3c4.8 0 4.8 4.6 4.8 6.1v3.4h-6.7v9.6c0 1.9 0 4.9 1.9 4.9s1.9-3 1.9-4.9v-2.4h2.9v1.9c0 1.6 0 6.1-4.8 6.1s-4.8-4.6-4.8-6.1V73.9c0-1.6 0-6.1 4.8-6.1zm2 8.7v-3.1c0-1.9 0-4.9-1.9-4.9s-1.9 3-1.9 4.9v3.1h3.8zm11.2 14.9h1.4v-18c0-2.3 0-4.2-1.7-4.2-.8 0-1.5.4-2.1 1.4v20.7h1.4v.8h-5.8v-.8h1.4V68.9h-1.4v-.8h4.3v1.5c.7-1.2 1.6-1.9 3.1-1.9 3.4 0 3.6 4 3.6 6.1v17.5h1.4v.8h-5.8v-.7zm13.7-16.5v-1.4c0-2.6 0-4.9-1.5-4.9-1.6 0-1.6 2.2-1.6 3.8 0 5.9 6 8.3 6 14.1 0 1.6 0 6.1-4.8 6.1s-4.8-4.6-4.8-6.1v-1.9h2.9V87c0 1.9 0 4.9 1.9 4.9s1.9-3 1.9-4.9c0-5.2-6-7.6-6-14.2 0-1.4 0-4.9 4.4-4.9 4.3 0 4.3 3.4 4.3 5.7V75h-2.7zm4.6 16.5h1.4V68.9h-1.4v-.8h4.3v23.2h1.4v.8h-5.8v-.7zm2.9-31.2c1.2 0 2.2 1 2.2 2.2s-1 2.2-2.2 2.2-2.2-1-2.2-2.2 1-2.2 2.2-2.2zm3.8 8.7v-.8h2.4v-7.8h2.9v7.8h3.8v.8h-3.8v17.5c0 3 .5 5.1 1.7 5.1.8 0 1.5-1 1.5-2.7h.9c0 1 0 3.7-2.9 3.7-3.7 0-4-4.6-4-6.6v-17h-2.5z"/><path d="M173.3 101.7c0-1.3.9-2.1 1.8-2.1s1.5.8 1.5 1.8-.5 1.6-1.4 1.6h-.3c.4.2.8.3 1.2.3 1.7 0 2.5-2.4 3.3-7l.5-2.9L175 69h-1.5v-.8h6v.8h-1.4l3.2 16.3L184 69h-1.3v-.8h3.9v.8h-1.5L180 96.2c-.9 5-1.6 7.8-4 7.8-1.4.1-2.7-.8-2.7-2.3zm29.8-11.1c-.7 1.2-1.6 1.9-3.1 1.9-3.4 0-3.6-4-3.6-6.1v-3.8c0-2.2.2-6.1 3.6-6.1 1.5 0 2.4.8 3.1 1.9v-4.9c0-2.4 0-4.9-2.4-4.9-1.6 0-2.9 1.1-3 2.7.2-.4.6-.6 1.1-.6.8 0 1.3.6 1.3 1.4 0 .9-.6 1.5-1.5 1.5-1 0-1.6-.7-1.6-2.1 0-2.2 1.8-3.8 4.5-3.8 4.7 0 4.7 4.6 4.7 6.1v17.5h1.4v.8h-4.3v-1.5zm-2.1.5c.8 0 1.5-.4 2.1-1.4V79.3c-.6-1-1.3-1.4-2.1-1.4-1.7 0-1.7 1.9-1.7 4.2v4.8c-.1 2.2-.1 4.2 1.7 4.2zm14.1.3h1.4v-18c0-2.3 0-4.2-1.7-4.2-.8 0-1.5.4-2.1 1.4v20.7h1.4v.8h-5.8v-.8h1.4V68.9h-1.4v-.8h4.3v1.5c.7-1.2 1.6-1.9 3.1-1.9 3.4 0 3.6 4 3.6 6.1v17.5h1.4v.8h-5.8v-.7zm14.1-.8c-.7 1.2-1.6 1.9-3.1 1.9-3.4 0-3.6-4-3.6-6.1V73.9c0-2.2.2-6.1 3.6-6.1 1.5 0 2.4.8 3.1 1.9V58.4h-1.4v-.8h4.3v33.8h1.4v.8h-4.3v-1.6zm-2.1.5c.8 0 1.5-.4 2.1-1.4v-19c-.6-1-1.3-1.4-2.1-1.4-1.7 0-1.7 1.9-1.7 4.2v13.4c0 2.2 0 4.2 1.7 4.2zm22.8.3h1.4v-18c0-2.3 0-4.2-1.7-4.2-.8 0-1.5.4-2.1 1.4v20.7h1.4v.8h-5.8v-.8h1.4v-33h-1.4v-.8h4.3v12.1c.7-1.2 1.6-1.9 3.1-1.9 3.4 0 3.6 4 3.6 6.1v17.5h1.4v.8h-5.8v-.7zm6.7 0h1.4V68.9h-1.4v-.8h4.3v23.2h1.4v.8h-5.8v-.7zm2.9-31.2c1.2 0 2.2 1 2.2 2.2s-1 2.2-2.2 2.2-2.2-1-2.2-2.2 1-2.2 2.2-2.2zm9 28.1c-2.6 0-4.4-1.3-4.4-3.2 0-.8.2-1.6 1.9-2.9-1.9-1.4-1.9-4.2-1.9-5.3V74c0-1.6 0-6.1 4.8-6.1.4 0 .7 0 1.1.1.6-1.7 1.9-3 3.6-3 1.2 0 1.9.7 1.9 1.7s-.6 1.5-1.4 1.5c-.9 0-1.4-.6-1.4-1.5 0-.4.1-.8.3-1-1.2.3-2 1.3-2.4 2.4 3.2.9 3.2 4.6 3.2 6V77c0 1.6 0 6.1-4.8 6.1-.9 0-1.6-.1-2.3-.4-.8 1-.9 1.4-.9 1.8 0 1.1 1.2 1.1 3.5 1.1 4.5 0 4.5 2.3 4.5 4.6v8c0 1.6 0 6.1-4.8 6.1s-4.8-4.6-4.8-6.1v-5.8h2.9v6.2c0 1.9 0 4.9 1.9 4.9s1.9-3 1.9-4.9v-6.3c-.1-3-.1-4-2.4-4zm.3-6.1c1.9 0 1.9-3 1.9-4.9v-3.8c0-1.9 0-4.9-1.9-4.9s-1.9 3-1.9 4.9v3.8c0 1.9 0 4.9 1.9 4.9z"/><path d="M282.1 91.4h1.4v-18c0-2.3 0-4.2-1.7-4.2-.8 0-1.5.4-2.1 1.4v20.7h1.4v.8h-5.8v-.8h1.4v-33h-1.4v-.8h4.3v12.1c.7-1.2 1.6-1.9 3.1-1.9 3.4 0 3.6 4 3.6 6.1v17.5h1.4v.8h-5.8v-.7zM303 67.8c4.8 0 4.8 4.6 4.8 6.1v1.9h-2.9v-2.4c0-1.9 0-4.9-1.9-4.9s-1.9 3-1.9 4.9v13.4c0 1.9 0 4.9 1.9 4.9s1.9-3 1.9-4.9v-2.4h2.9v1.9c0 1.6 0 6.1-4.8 6.1s-4.8-4.6-4.8-6.1V73.9c0-1.6 0-6.1 4.8-6.1zm11.9 0c4.8 0 4.8 4.6 4.8 6.1v12.5c0 1.6 0 6.1-4.8 6.1s-4.8-4.6-4.8-6.1V73.9c0-1.6 0-6.1 4.8-6.1zm0 24c1.9 0 1.9-3 1.9-4.9V73.4c0-1.9 0-4.9-1.9-4.9s-1.9 3-1.9 4.9v13.4c0 2 0 5 1.9 5zm13.2-.4h1.4v-18c0-2.3 0-4.2-1.7-4.2-.8 0-1.5.4-2.1 1.4v20.7h1.4v.8h-5.8v-.8h1.4V68.9h-1.4v-.8h4.3v1.5c.7-1.2 1.6-1.9 3.1-1.9 3.4 0 3.6 4 3.6 6.1v17.5h1.4v.8h-5.8v-.7zm14.2-.8c-.7 1.2-1.6 1.9-3.1 1.9-3.4 0-3.6-4-3.6-6.1V73.9c0-2.2.2-6.1 3.6-6.1 1.5 0 2.4.8 3.1 1.9V58.4h-1.4v-.8h4.3v33.8h1.4v.8h-4.3v-1.6zm-2.1.5c.8 0 1.5-.4 2.1-1.4v-19c-.6-1-1.3-1.4-2.1-1.4-1.7 0-1.7 1.9-1.7 4.2v13.4c-.1 2.2-.1 4.2 1.7 4.2zm15.5-.5c-.7 1.2-1.6 1.9-3.1 1.9-3.4 0-3.6-4-3.6-6.1V68.9h-1.4v-.8h4.3v18.7c0 2.3 0 4.2 1.7 4.2.8 0 1.5-.4 2.1-1.4V68.9h-1.4v-.8h4.3v23.2h1.4v.8h-4.3v-1.5zm10.8-22.8c4.8 0 4.8 4.6 4.8 6.1v1.9h-2.9v-2.4c0-1.9 0-4.9-1.9-4.9s-1.9 3-1.9 4.9v13.4c0 1.9 0 4.9 1.9 4.9s1.9-3 1.9-4.9v-2.4h2.9v1.9c0 1.6 0 6.1-4.8 6.1s-4.8-4.6-4.8-6.1V73.9c0-1.6 0-6.1 4.8-6.1zm5.5 1.1v-.8h2.4v-7.8h2.9v7.8h3.8v.8h-3.8v17.5c0 3 .5 5.1 1.7 5.1.8 0 1.5-1 1.5-2.7h.9c0 1 0 3.7-2.9 3.7-3.7 0-4-4.6-4-6.6v-17H372z"/><path d="M381.1 91.4h1.4V68.9h-1.4v-.8h4.3v23.2h1.4v.8H381v-.7zm2.9-31.2c1.2 0 2.2 1 2.2 2.2s-1 2.2-2.2 2.2-2.2-1-2.2-2.2 1-2.2 2.2-2.2zm5.1 8.7h-1.5v-.8h6v.8h-1.4l3 15.9 2.9-15.9h-1.4v-.8h4v.8h-1.5l-4.5 23.6h-1.1l-4.5-23.6zm12.5 22.5h1.4V68.9h-1.4v-.8h4.3v23.2h1.4v.8h-5.8v-.7zm2.8-31.2c1.2 0 2.2 1 2.2 2.2s-1 2.2-2.2 2.2-2.2-1-2.2-2.2 1-2.2 2.2-2.2zm3.9 8.7v-.8h2.4v-7.8h2.9v7.8h3.8v.8h-3.8v17.5c0 3 .5 5.1 1.7 5.1.8 0 1.5-1 1.5-2.7h.9c0 1 0 3.7-2.9 3.7-3.7 0-4-4.6-4-6.6v-17h-2.5z"/><path d="M417 101.7c0-1.3.9-2.1 1.8-2.1s1.5.8 1.5 1.8-.5 1.6-1.4 1.6h-.3c.4.2.8.3 1.2.3 1.7 0 2.5-2.4 3.3-7l.5-2.9-4.9-24.4h-1.5v-.8h6v.8h-1.4l3.2 16.3 2.7-16.3H426v-.8h3.9v.8h-1.5l-4.7 27.3c-.9 5-1.6 7.8-4 7.8-1.4 0-2.7-.9-2.7-2.4zm12.7-11.5c0-1.3 1-2.3 2.3-2.3s2.3 1 2.3 2.3-1 2.3-2.3 2.3-2.3-1-2.3-2.3zm-367 81.2h1.4l-2-12.9h-4.2l-2.3 12.9H57v.8h-4v-.8h1.5l6-33.2H62l5.5 33.2H69v.8h-6.2v-.8zm-.7-13.6-1.8-11.6-2.2 11.6h4zm7.8 13.6h1.4v-33h-1.4v-.8h4.3v33.8h1.4v.8h-5.8v-.8zm14.9-.8c-.7 1.2-1.6 1.9-3.1 1.9-3.4 0-3.6-4-3.6-6.1v-17.5h-1.4v-.8h4.3v18.7c0 2.3 0 4.2 1.7 4.2.8 0 1.5-.4 2.1-1.4v-20.7h-1.4v-.8h4.3v23.2H89v.8h-4.3v-1.5zm18.7.8h1.4v-18c0-2.3 0-4.2-1.8-4.2-.7 0-1.7.4-2.4 1.3.3 1.2.3 2.4.3 3.3v17.5h1.4v.8h-5.8v-.8h1.4v-18c0-2.3 0-4.2-1.7-4.2-.8 0-1.5.4-2.1 1.4v20.7h1.4v.8H90v-.8h1.4v-22.5H90v-.8h4.3v1.5c.7-1.2 1.6-1.9 3.1-1.9s2.4.9 2.9 2c.9-1.1 2.2-2 3.7-2 3.4 0 3.6 4 3.6 6.1v17.5h1.4v.8h-5.8v-.5zm6.8 0h1.4v-22.5h-1.4v-.8h4.3v23.2h1.4v.8h-5.8v-.7zm2.8-31.2c1.2 0 2.2 1 2.2 2.2s-1 2.2-2.2 2.2-2.2-1-2.2-2.2 1-2.2 2.2-2.2zm10.6 31.2h1.4v-18c0-2.3 0-4.2-1.7-4.2-.8 0-1.5.4-2.1 1.4v20.7h1.4v.8h-5.8v-.8h1.4v-22.5h-1.4v-.8h4.3v1.5c.7-1.2 1.6-1.9 3.1-1.9 3.4 0 3.6 4 3.6 6.1v17.5h1.4v.8h-5.8v-.6zm6.7 0h1.4v-22.5h-1.4v-.8h4.3v23.2h1.4v.8h-5.8v-.7zm2.9-31.2c1.2 0 2.2 1 2.2 2.2s-1 2.2-2.2 2.2-2.2-1-2.2-2.2 1-2.2 2.2-2.2zm12 30.4c-.7 1.2-1.6 1.9-3.1 1.9-3.4 0-3.6-4-3.6-6.1v-17.5H137v-.8h4.3v18.7c0 2.3 0 4.2 1.7 4.2.8 0 1.5-.4 2.1-1.4v-20.7h-1.4v-.8h4.3v23.2h1.4v.8h-4.3v-1.5zm18.7.8h1.4v-18c0-2.3 0-4.2-1.8-4.2-.7 0-1.7.4-2.4 1.3.3 1.2.3 2.4.3 3.3v17.5h1.4v.8H157v-.8h1.4v-18c0-2.3 0-4.2-1.7-4.2-.8 0-1.5.4-2.1 1.4v20.7h1.4v.8h-5.8v-.8h1.4v-22.5h-1.4v-.8h4.3v1.5c.7-1.2 1.6-1.9 3.1-1.9s2.4.9 2.9 2c.9-1.1 2.2-2 3.7-2 3.4 0 3.6 4 3.6 6.1v17.5h1.4v.8h-5.8v-.5zm15.4 0h1.4v-22.5h-1.4v-.8h4.3v23.2h1.4v.8h-5.8v-.7zm2.9-31.2c1.2 0 2.2 1 2.2 2.2s-1 2.2-2.2 2.2-2.2-1-2.2-2.2 1-2.2 2.2-2.2zm11.2 14.7v-1.4c0-2.6 0-4.9-1.5-4.9-1.6 0-1.6 2.2-1.6 3.8 0 5.9 6 8.3 6 14.1 0 1.6 0 6.1-4.8 6.1s-4.8-4.6-4.8-6.1v-1.9h2.9v2.4c0 1.9 0 4.9 1.9 4.9s1.9-3 1.9-4.9c0-5.2-6-7.6-6-14.2 0-1.4 0-4.9 4.4-4.9 4.3 0 4.3 3.4 4.3 5.7v1.4h-2.7zm20.7 15.7c-.7 1.2-1.6 1.9-3.1 1.9-3.4 0-3.6-4-3.6-6.1v-3.8c0-2.2.2-6.1 3.6-6.1 1.5 0 2.4.8 3.1 1.9v-4.9c0-2.4 0-4.9-2.4-4.9-1.6 0-2.9 1.1-3 2.7.2-.4.6-.6 1.1-.6.8 0 1.3.6 1.3 1.4 0 .9-.6 1.5-1.5 1.5-1 0-1.6-.7-1.6-2.1 0-2.2 1.8-3.8 4.5-3.8 4.7 0 4.7 4.6 4.7 6.1v17.5h1.4v.8h-4.3v-1.5zm-2.1.5c.8 0 1.5-.4 2.1-1.4v-10.3c-.6-1-1.3-1.4-2.1-1.4-1.7 0-1.7 1.9-1.7 4.2v4.8c-.1 2.1-.1 4.1 1.7 4.1zm7.4.3h1.4v-33h-1.4v-.8h4.3v33.8h1.4v.8h-5.8v-.8zm14.1-16.5v-1.4c0-2.6 0-4.9-1.5-4.9-1.6 0-1.6 2.2-1.6 3.8 0 5.9 6 8.3 6 14.1 0 1.6 0 6.1-4.8 6.1s-4.8-4.6-4.8-6.1v-1.9h2.9v2.4c0 1.9 0 4.9 1.9 4.9s1.9-3 1.9-4.9c0-5.2-6-7.6-6-14.2 0-1.4 0-4.9 4.4-4.9 4.3 0 4.3 3.4 4.3 5.7v1.4h-2.7zm10.1-7.1c4.8 0 4.8 4.6 4.8 6.1v12.5c0 1.6 0 6.1-4.8 6.1s-4.8-4.6-4.8-6.1v-12.5c0-1.6 0-6.1 4.8-6.1zm0 24c1.9 0 1.9-3 1.9-4.9v-13.4c0-1.9 0-4.9-1.9-4.9s-1.9 3-1.9 4.9v13.4c0 1.9 0 4.9 1.9 4.9zm22.6-1.2c-.7 1.2-1.6 1.9-3.1 1.9-3.4 0-3.6-4-3.6-6.1v-3.8c0-2.2.2-6.1 3.6-6.1 1.5 0 2.4.8 3.1 1.9v-4.9c0-2.4 0-4.9-2.4-4.9-1.6 0-2.9 1.1-3 2.7.2-.4.6-.6 1.1-.6.8 0 1.3.6 1.3 1.4 0 .9-.6 1.5-1.5 1.5-1 0-1.6-.7-1.6-2.1 0-2.2 1.8-3.8 4.5-3.8 4.7 0 4.7 4.6 4.7 6.1v17.5h1.4v.8h-4.3v-1.5zm-2.2.5c.8 0 1.5-.4 2.1-1.4v-10.3c-.6-1-1.3-1.4-2.1-1.4-1.7 0-1.7 1.9-1.7 4.2v4.8c0 2.1 0 4.1 1.7 4.1zm23.5-16.2v-1.4c0-2.6 0-4.9-1.5-4.9-1.6 0-1.6 2.2-1.6 3.8 0 5.9 6 8.3 6 14.1 0 1.6 0 6.1-4.8 6.1s-4.8-4.6-4.8-6.1v-1.9h2.9v2.4c0 1.9 0 4.9 1.9 4.9s1.9-3 1.9-4.9c0-5.2-6-7.6-6-14.2 0-1.4 0-4.9 4.4-4.9 4.3 0 4.3 3.4 4.3 5.7v1.4h-2.7zm10.1-7.1c4.8 0 4.8 4.6 4.8 6.1v3.4h-6.7v9.6c0 1.9 0 4.9 1.9 4.9s1.9-3 1.9-4.9v-2.4h2.9v1.9c0 1.6 0 6.1-4.8 6.1s-4.8-4.6-4.8-6.1v-12.5c0-1.6 0-6.1 4.8-6.1zm1.9 8.7v-3.1c0-1.9 0-4.9-1.9-4.9s-1.9 3-1.9 4.9v3.1h3.8zm4.6 14.9h1.4v-22.5h-1.4v-.8h4.3v1.5c.9-1.1 1.9-1.9 3.2-1.9 1.6 0 2.4 1.2 2.4 2.7 0 1.5-.7 2.1-1.5 2.1-1 0-1.5-.6-1.5-1.6s.7-1.5 1.4-1.5c.3 0 .5.1.7.2-.1-.7-.6-1.1-1.3-1.1-1.1 0-2.3.9-3.3 2.2v20.6h2v.8h-6.3v-.7zm10.4 0h1.4v-22.5h-1.4v-.8h4.3v23.2h1.4v.8h-5.8v-.7zm2.9-31.2c1.2 0 2.2 1 2.2 2.2s-1 2.2-2.2 2.2-2.2-1-2.2-2.2 1-2.2 2.2-2.2zm4.8 31.2h1.4v-22.5h-2.4v-.8h2.4v-4.3c0-2.2 1.2-6.6 5.7-6.6 3.3 0 4.7 2.2 4.7 4.1 0 1.3-.7 1.9-1.5 1.9-1 0-1.5-.7-1.5-1.7s.5-1.5 1.3-1.5c.3 0 .6.1.7.2-.4-1.3-1.6-2.2-3-2.2-2.4 0-3.5 2.7-3.5 5.4v4.8h5.3v.8h-5.3v22.5h1.9v.8h-6.2v-.9zm18.7 0h1.4v-22.5H340v-.8h2.4v-4.3c0-2.2 1.2-6.6 5.7-6.6 3.3 0 4.7 2.2 4.7 4.1 0 1.3-.7 1.9-1.5 1.9-1 0-1.5-.7-1.5-1.7s.5-1.5 1.3-1.5c.3 0 .6.1.7.2-.4-1.3-1.6-2.2-3-2.2-2.4 0-3.5 2.7-3.5 5.4v4.8h5.3v.8h-5.3v22.5h1.9v.8H341v-.9z"/><path d="M354.6 147.8c4.8 0 4.8 4.6 4.8 6.1v12.5c0 1.6 0 6.1-4.8 6.1s-4.8-4.6-4.8-6.1v-12.5c0-1.6 0-6.1 4.8-6.1zm0 24c1.9 0 1.9-3 1.9-4.9v-13.4c0-1.9 0-4.9-1.9-4.9s-1.9 3-1.9 4.9v13.4c0 1.9 0 4.9 1.9 4.9zm13.2-.4h1.4v-18c0-2.3 0-4.2-1.7-4.2-.8 0-1.5.4-2.1 1.4v20.7h1.4v.8H361v-.8h1.4v-22.5H361v-.8h4.3v1.5c.7-1.2 1.6-1.9 3.1-1.9 3.4 0 3.6 4 3.6 6.1v17.5h1.4v.8h-5.8v-.6zm6-22.5v-.8h2.4v-7.8h2.9v7.8h3.8v.8h-3.8v17.5c0 3 .5 5.1 1.7 5.1.8 0 1.5-1 1.5-2.7h.9c0 1 0 3.7-2.9 3.7-3.7 0-4-4.6-4-6.6v-17h-2.5zM11.2 206.5H9.7v-.8h6v.8h-1.4l3 15.9 2.4-12.8-.6-3.1h-1.5v-.8h6v.8h-1.4l3 15.9 2.9-15.9h-1.4v-.8h4v.8h-1.5l-4.5 23.6h-1.1l-3.5-17.7-3.4 17.7h-1.1l-4.4-23.6zM31.5 229H33v-22.5h-1.4v-.8h4.3V229h1.4v.8h-5.8v-.8zm2.9-31.2c1.2 0 2.2 1 2.2 2.2s-1 2.2-2.2 2.2-2.2-1-2.2-2.2 1-2.2 2.2-2.2zm3.8 8.7v-.8h2.4V198h2.9v7.8h3.8v.8h-3.8V224c0 3 .5 5.1 1.7 5.1.8 0 1.5-1 1.5-2.7h.9c0 1 0 3.7-2.9 3.7-3.7 0-4-4.6-4-6.6v-17h-2.5z"/><path d="M54.1 229h1.4v-18c0-2.3 0-4.2-1.7-4.2-.8 0-1.5.4-2.1 1.4V229h1.4v.8h-5.8v-.8h1.4v-33h-1.4v-.8h4.3v12.1c.7-1.2 1.6-1.9 3.1-1.9 3.4 0 3.6 4 3.6 6.1V229h1.4v.8h-5.8v-.8zm22.1 0h1.4v-18c0-2.3 0-4.2-1.7-4.2-.8 0-1.5.4-2.1 1.4V229h1.4v.8h-5.8v-.8h1.4v-22.5h-1.4v-.8h4.3v1.5c.7-1.2 1.6-1.9 3.1-1.9 3.4 0 3.6 4 3.6 6.1V229h1.4v.8H76v-.8zm14.1-.8c-.7 1.2-1.6 1.9-3.1 1.9-3.4 0-3.6-4-3.6-6.1v-3.8c0-2.2.2-6.1 3.6-6.1 1.5 0 2.4.8 3.1 1.9v-5c0-2.4 0-4.9-2.4-4.9-1.6 0-2.9 1.1-3 2.7.2-.4.6-.6 1.1-.6.8 0 1.3.6 1.3 1.4 0 .9-.6 1.5-1.5 1.5-1 0-1.6-.7-1.6-2.1 0-2.2 1.8-3.8 4.5-3.8 4.7 0 4.7 4.6 4.7 6.1V229h1.4v.8h-4.3v-1.6zm-2.1.5c.8 0 1.5-.4 2.1-1.4V217c-.6-1-1.3-1.4-2.1-1.4-1.7 0-1.7 1.9-1.7 4.2v4.8c0 2.1 0 4.1 1.7 4.1zm7.4.3H97v-22.5h-1.4v-.8h4.3v1.5c.9-1.1 1.9-1.9 3.2-1.9 1.6 0 2.4 1.2 2.4 2.7 0 1.5-.7 2.1-1.5 2.1-1 0-1.5-.6-1.5-1.6s.7-1.5 1.4-1.5c.3 0 .5.1.7.2-.1-.7-.6-1.1-1.3-1.1-1.1 0-2.3.9-3.3 2.2V229h2v.8h-6.3v-.8z"/><path d="M105.1 229h1.4v-22.5h-1.4v-.8h4.3v1.5c.9-1.1 1.9-1.9 3.2-1.9 1.6 0 2.4 1.2 2.4 2.7 0 1.5-.7 2.1-1.5 2.1-1 0-1.5-.6-1.5-1.6s.7-1.5 1.4-1.5c.3 0 .5.1.7.2-.1-.7-.6-1.1-1.3-1.1-1.1 0-2.3.9-3.3 2.2V229h2v.8h-6.3v-.8zm15-23.6c4.8 0 4.8 4.6 4.8 6.1V224c0 1.6 0 6.1-4.8 6.1s-4.8-4.6-4.8-6.1v-12.5c0-1.6 0-6.1 4.8-6.1zm0 24c1.9 0 1.9-3 1.9-4.9V211c0-1.9 0-4.9-1.9-4.9s-1.9 3-1.9 4.9v13.4c0 2 0 5 1.9 5zm7.3-22.9h-1.5v-.8h6v.8h-1.4l3 15.9 2.4-12.8-.6-3.1h-1.5v-.8h6v.8h-1.4l3 15.9 2.9-15.9H143v-.8h4v.8h-1.5l-4.5 23.6h-1.1l-3.5-17.7-3.4 17.7h-1.1l-4.5-23.6zm30.3 0h-1.5v-.8h6v.8h-1.4l3 15.9 2.4-12.8-.6-3.1H164v-.8h6v.8h-1.4l3 15.9 2.9-15.9h-1.4v-.8h4v.8h-1.5l-4.5 23.6H170l-3.5-17.7-3.4 17.7H162l-4.3-23.6zM178 229h1.4v-22.5H178v-.8h4.3V229h1.4v.8H178v-.8zm2.8-31.2c1.2 0 2.2 1 2.2 2.2s-1 2.2-2.2 2.2-2.2-1-2.2-2.2 1-2.2 2.2-2.2zm11.3 30.4c-.7 1.2-1.6 1.9-3.1 1.9-3.4 0-3.6-4-3.6-6.1v-12.5c0-2.2.2-6.1 3.6-6.1 1.5 0 2.4.8 3.1 1.9V196h-1.4v-.8h4.3V229h1.4v.8h-4.3v-1.6zm-2.1.5c.8 0 1.5-.4 2.1-1.4v-18.9c-.6-1-1.3-1.4-2.1-1.4-1.7 0-1.7 1.9-1.7 4.2v13.4c0 2.1 0 4.1 1.7 4.1zm7.4-22.2v-.8h2.4V198h2.9v7.8h3.8v.8h-3.8V224c0 3 .5 5.1 1.7 5.1.8 0 1.5-1 1.5-2.7h.9c0 1 0 3.7-2.9 3.7-3.7 0-4-4.6-4-6.6v-17h-2.5z"/><path d="M213.2 229h1.4v-18c0-2.3 0-4.2-1.7-4.2-.8 0-1.5.4-2.1 1.4V229h1.4v.8h-5.8v-.8h1.4v-33h-1.4v-.8h4.3v12.1c.7-1.2 1.6-1.9 3.1-1.9 3.4 0 3.6 4 3.6 6.1V229h1.4v.8H213v-.8zm22.8-.8c-.7 1.2-1.6 1.9-3.1 1.9-3.4 0-3.6-4-3.6-6.1v-3.8c0-2.2.2-6.1 3.6-6.1 1.5 0 2.4.8 3.1 1.9v-5c0-2.4 0-4.9-2.4-4.9-1.6 0-2.9 1.1-3 2.7.2-.4.6-.6 1.1-.6.8 0 1.3.6 1.3 1.4 0 .9-.6 1.5-1.5 1.5-1 0-1.6-.7-1.6-2.1 0-2.2 1.8-3.8 4.5-3.8 4.7 0 4.7 4.6 4.7 6.1V229h1.4v.8H236v-1.6zm-2.1.5c.8 0 1.5-.4 2.1-1.4V217c-.6-1-1.3-1.4-2.1-1.4-1.7 0-1.7 1.9-1.7 4.2v4.8c0 2.1 0 4.1 1.7 4.1zm14.1.3h1.4v-18c0-2.3 0-4.2-1.7-4.2-.8 0-1.5.4-2.1 1.4V229h1.4v.8h-5.8v-.8h1.4v-22.5h-1.4v-.8h4.3v1.5c.7-1.2 1.6-1.9 3.1-1.9 3.4 0 3.6 4 3.6 6.1V229h1.4v.8H248v-.8zm14.2-.8c-.7 1.2-1.6 1.9-3.1 1.9-3.4 0-3.6-4-3.6-6.1v-12.5c0-2.2.2-6.1 3.6-6.1 1.5 0 2.4.8 3.1 1.9V196h-1.4v-.8h4.3V229h1.4v.8h-4.3v-1.6zm-2.1.5c.8 0 1.5-.4 2.1-1.4v-18.9c-.6-1-1.3-1.4-2.1-1.4-1.7 0-1.7 1.9-1.7 4.2v13.4c0 2.1 0 4.1 1.7 4.1zm22.7.3h1.4v-18c0-2.3 0-4.2-1.7-4.2-.8 0-1.5.4-2.1 1.4V229h1.4v.8H276v-.8h1.4v-33H276v-.8h4.3v12.1c.7-1.2 1.6-1.9 3.1-1.9 3.4 0 3.6 4 3.6 6.1V229h1.4v.8h-5.8v-.8zm6.8 0h1.4v-22.5h-1.4v-.8h4.3V229h1.4v.8h-5.8v-.8zm2.8-31.2c1.2 0 2.2 1 2.2 2.2s-1 2.2-2.2 2.2-2.2-1-2.2-2.2 1-2.2 2.2-2.2zm9 28.1c-2.6 0-4.4-1.3-4.4-3.2 0-.8.2-1.6 1.9-2.9-1.9-1.4-1.9-4.2-1.9-5.3v-2.9c0-1.6 0-6.1 4.8-6.1.4 0 .7 0 1.1.1.6-1.7 1.9-3 3.6-3 1.2 0 1.9.7 1.9 1.7s-.6 1.5-1.4 1.5c-.9 0-1.4-.6-1.4-1.5 0-.4.1-.8.3-1-1.2.3-2 1.3-2.4 2.4 3.2.9 3.2 4.6 3.2 6v2.9c0 1.6 0 6.1-4.8 6.1-.9 0-1.6-.1-2.3-.4-.8 1-.9 1.4-.9 1.8 0 1.1 1.2 1.1 3.5 1.1 4.5 0 4.5 2.3 4.5 4.6v8c0 1.6 0 6.1-4.8 6.1s-4.8-4.6-4.8-6.1V230h2.9v6.2c0 1.9 0 4.9 1.9 4.9s1.9-3 1.9-4.9v-6.3c-.1-3-.1-4-2.4-4zm.4-6.1c1.9 0 1.9-3 1.9-4.9V211c0-1.9 0-4.9-1.9-4.9s-1.9 3-1.9 4.9v3.8c0 2 0 5 1.9 5z"/><path d="M315 229h1.4v-18c0-2.3 0-4.2-1.7-4.2-.8 0-1.5.4-2.1 1.4V229h1.4v.8h-5.8v-.8h1.4v-33h-1.4v-.8h4.3v12.1c.7-1.2 1.6-1.9 3.1-1.9 3.4 0 3.6 4 3.6 6.1V229h1.4v.8H315v-.8zm20.9-23.6c4.8 0 4.8 4.6 4.8 6.1v1.9h-2.9V211c0-1.9 0-4.9-1.9-4.9s-1.9 3-1.9 4.9v13.4c0 1.9 0 4.9 1.9 4.9s1.9-3 1.9-4.9V222h2.9v1.9c0 1.6 0 6.1-4.8 6.1s-4.8-4.6-4.8-6.1v-12.5c0-1.5 0-6 4.8-6zm12 0c4.8 0 4.8 4.6 4.8 6.1V224c0 1.6 0 6.1-4.8 6.1s-4.8-4.6-4.8-6.1v-12.5c0-1.6 0-6.1 4.8-6.1zm0 24c1.9 0 1.9-3 1.9-4.9V211c0-1.9 0-4.9-1.9-4.9s-1.9 3-1.9 4.9v13.4c0 2 0 5 1.9 5zm13.2-.4h1.4v-18c0-2.3 0-4.2-1.7-4.2-.8 0-1.5.4-2.1 1.4V229h1.4v.8h-5.8v-.8h1.4v-22.5h-1.4v-.8h4.3v1.5c.7-1.2 1.6-1.9 3.1-1.9 3.4 0 3.6 4 3.6 6.1V229h1.4v.8h-5.8v-.8zm6-22.5v-.8h2.4V198h2.9v7.8h3.8v.8h-3.8V224c0 3 .5 5.1 1.7 5.1.8 0 1.5-1 1.5-2.7h.9c0 1 0 3.7-2.9 3.7-3.7 0-4-4.6-4-6.6v-17h-2.5zm9.6 22.5h1.4v-22.5h-1.4v-.8h4.3v1.5c.9-1.1 1.9-1.9 3.2-1.9 1.6 0 2.4 1.2 2.4 2.7 0 1.5-.7 2.1-1.5 2.1-1 0-1.5-.6-1.5-1.6s.7-1.5 1.4-1.5c.3 0 .5.1.7.2-.1-.7-.6-1.1-1.3-1.1-1.1 0-2.3.9-3.3 2.2V229h2v.8h-6.3v-.8zm16.9-.8c-.7 1.2-1.6 1.9-3.1 1.9-3.4 0-3.6-4-3.6-6.1v-3.8c0-2.2.2-6.1 3.6-6.1 1.5 0 2.4.8 3.1 1.9v-5c0-2.4 0-4.9-2.4-4.9-1.6 0-2.9 1.1-3 2.7.2-.4.6-.6 1.1-.6.8 0 1.3.6 1.3 1.4 0 .9-.6 1.5-1.5 1.5-1 0-1.6-.7-1.6-2.1 0-2.2 1.8-3.8 4.5-3.8 4.7 0 4.7 4.6 4.7 6.1V229h1.4v.8h-4.3v-1.6zm-2.1.5c.8 0 1.5-.4 2.1-1.4V217c-.6-1-1.3-1.4-2.1-1.4-1.7 0-1.7 1.9-1.7 4.2v4.8c0 2.1 0 4.1 1.7 4.1zm14.4-16.2V211c0-2.6 0-4.9-1.5-4.9-1.6 0-1.6 2.2-1.6 3.8 0 5.9 6 8.3 6 14.1 0 1.6 0 6.1-4.8 6.1s-4.8-4.6-4.8-6.1v-1.9h2.9v2.4c0 1.9 0 4.9 1.9 4.9s1.9-3 1.9-4.9c0-5.2-6-7.6-6-14.2 0-1.4 0-4.9 4.4-4.9 4.3 0 4.3 3.4 4.3 5.7v1.4h-2.7zm3.6-6v-.8h2.4V198h2.9v7.8h3.8v.8h-3.8V224c0 3 .5 5.1 1.7 5.1.8 0 1.5-1 1.5-2.7h.9c0 1 0 3.7-2.9 3.7-3.7 0-4-4.6-4-6.6v-17h-2.5zm10.5 21.3c0-1.3 1-2.3 2.3-2.3s2.3 1 2.3 2.3-1 2.3-2.3 2.3-2.3-1-2.3-2.3z"/></svg>